<?xml version="1.0" standalone="no"?>
<!DOCTYPE svg PUBLIC "-//W3C//DTD SVG 20010904//EN"
 "http://www.w3.org/TR/2001/REC-SVG-20010904/DTD/svg10.dtd">
<svg version="1.0" xmlns="http://www.w3.org/2000/svg"
 width="700.000000pt" height="700.000000pt" viewBox="0 0 700.000000 700.000000"
 preserveAspectRatio="xMidYMid meet">
<metadata>
Created by potrace 1.14, written by Peter Selinger 2001-2017
</metadata>
<g transform="translate(0.000000,700.000000) scale(0.100000,-0.100000)"
fill="#000000" stroke="none">
<path d="M401 5750 c-49 -19 -71 -37 -101 -80 l-25 -35 -2 -1650 c-2 -1626 -2
-1651 18 -1690 25 -51 71 -92 118 -105 23 -6 499 -10 1356 -10 l1320 0 -1
-232 c-1 -128 -2 -238 -3 -244 -1 -7 -88 -10 -268 -9 -292 0 -313 -3 -376 -63
-112 -106 -72 -291 76 -347 37 -14 146 -15 1002 -13 915 3 962 4 995 22 103
55 144 170 98 276 -20 46 -49 75 -101 102 -40 20 -55 21 -317 22 l-275 1 0
238 c0 131 3 240 6 243 4 2 602 4 1329 4 1426 0 1356 -2 1414 52 14 13 34 41
45 63 20 39 20 64 20 1675 1 1574 0 1637 -18 1675 -24 51 -55 83 -100 103 -33
15 -321 16 -3104 17 -2731 0 -3072 -1 -3106 -15z"/>
</g>
</svg>
